G75*
%MOIN*%
%OFA0B0*%
%FSLAX24Y24*%
%IPPOS*%
%LPD*%
%AMOC8*
5,1,8,0,0,1.08239X$1,22.5*
%
%ADD10C,0.0867*%
%ADD11R,0.1064X0.0867*%
%ADD12R,0.1379X0.0867*%
%ADD13R,0.1300X0.0277*%
%ADD14C,0.0434*%
%ADD15R,0.0356X0.0592*%
%ADD16R,0.0789X0.0926*%
%ADD17OC8,0.1261*%
%ADD18R,0.0867X0.1261*%
%ADD19OC8,0.1064*%
%ADD20OC8,0.1080*%
%ADD21OC8,0.0671*%
%ADD22R,0.0552X0.0297*%
%ADD23R,0.0592X0.0710*%
%ADD24R,0.0926X0.0789*%
%ADD25C,0.0496*%
%ADD26R,0.0434X0.0395*%
%ADD27R,0.0592X0.0671*%
%ADD28R,0.0789X0.0749*%
%ADD29R,0.0946X0.0552*%
%ADD30R,0.0789X0.0552*%
%ADD31R,0.0710X0.0671*%
%ADD32C,0.0474*%
%ADD33R,0.0710X0.0356*%
%ADD34R,0.0671X0.0592*%
%ADD35C,0.0560*%
%ADD36C,0.0358*%
D10*
X006031Y022246D03*
X013511Y022246D03*
D11*
X002094Y000809D03*
X002094Y004313D03*
D12*
X004416Y004313D03*
X004416Y000809D03*
D13*
X004456Y001931D03*
X004456Y002246D03*
X004456Y002561D03*
X004456Y002876D03*
X004456Y003191D03*
D14*
X003275Y003427D03*
X003275Y001694D03*
D15*
X010595Y003840D03*
X011095Y003840D03*
X011595Y003840D03*
X012095Y003840D03*
X012095Y006006D03*
X011595Y006006D03*
X011095Y006006D03*
X010595Y006006D03*
D16*
X006109Y003200D03*
X006109Y001921D03*
X012330Y022196D03*
X012330Y023476D03*
D17*
X015873Y023427D03*
D18*
X014692Y022246D03*
D19*
X011149Y002364D03*
X012133Y001380D03*
X010164Y001380D03*
X001897Y018309D03*
X001897Y023427D03*
D20*
X003668Y018506D03*
D21*
X002881Y019883D03*
X002094Y019490D03*
X002881Y021458D03*
X002881Y022246D03*
X002094Y021852D03*
D22*
X009653Y022108D03*
X009653Y022856D03*
X010676Y022856D03*
X010676Y022482D03*
X010676Y022108D03*
D23*
X010519Y023702D03*
X009731Y023702D03*
D24*
X009525Y020868D03*
X010804Y020868D03*
D25*
X003483Y016734D02*
X003067Y016734D01*
X003067Y016234D02*
X003483Y016234D01*
X003483Y015734D02*
X003067Y015734D01*
X003067Y015234D02*
X003483Y015234D01*
X003483Y014734D02*
X003067Y014734D01*
X003067Y014234D02*
X003483Y014234D01*
X003483Y013734D02*
X003067Y013734D01*
X003067Y013234D02*
X003483Y013234D01*
D26*
X005322Y020218D03*
X005322Y020966D03*
X004534Y020592D03*
D27*
X004751Y019332D03*
X005420Y019332D03*
X011208Y013191D03*
X011877Y013191D03*
D28*
X011680Y007285D03*
X010066Y007285D03*
D29*
X004653Y005907D03*
X004653Y012206D03*
D30*
X008499Y012226D03*
D31*
X008491Y006305D03*
D32*
X004456Y007876D03*
X004456Y007876D03*
X004456Y011006D03*
D33*
X008865Y011202D03*
X008865Y010750D03*
X008865Y010277D03*
X008865Y009844D03*
X008865Y009411D03*
X008865Y008978D03*
X008865Y008525D03*
X008865Y008072D03*
X008865Y011655D03*
D34*
X007133Y018624D03*
X007133Y019293D03*
X007999Y020927D03*
X007999Y021596D03*
D35*
X011149Y018078D03*
X011149Y016178D03*
D36*
X009849Y014529D03*
X009771Y013899D03*
X009397Y013525D03*
X009279Y014234D03*
X008885Y013427D03*
X008747Y013978D03*
X008373Y013565D03*
X008097Y012698D03*
X007527Y012561D03*
X007034Y013053D03*
X006227Y012009D03*
X005971Y011084D03*
X006149Y010533D03*
X007349Y010533D03*
X008058Y009411D03*
X007290Y008761D03*
X006818Y008131D03*
X008353Y007088D03*
X010164Y009372D03*
X010617Y007738D03*
X011090Y006911D03*
X010676Y006498D03*
X011818Y007856D03*
X012487Y006380D03*
X011109Y003348D03*
X008314Y010612D03*
X008314Y011124D03*
X009082Y012659D03*
X009790Y011360D03*
X010401Y011734D03*
X010066Y012679D03*
X010361Y014057D03*
X011031Y012541D03*
X011542Y012541D03*
X011306Y011360D03*
X011680Y013978D03*
X009515Y017226D03*
X008688Y017088D03*
X008235Y016124D03*
X008255Y015533D03*
X008097Y014805D03*
X007704Y015848D03*
X007743Y016360D03*
X007192Y017029D03*
X006601Y017088D03*
X006464Y016537D03*
X006916Y016025D03*
X007586Y014805D03*
X006227Y014372D03*
X005637Y015061D03*
X005263Y014608D03*
X004436Y014313D03*
X004259Y013722D03*
X003924Y014313D03*
X004534Y012679D03*
X003294Y011222D03*
X006129Y017344D03*
X005794Y017994D03*
X006601Y018702D03*
X006916Y017915D03*
X008294Y018427D03*
X009318Y019372D03*
X009869Y019194D03*
X010184Y018604D03*
X009338Y020277D03*
X009968Y021458D03*
X010086Y022383D03*
X010263Y023112D03*
X011483Y021183D03*
X011168Y020277D03*
X008590Y020769D03*
X008078Y020100D03*
X008196Y022147D03*
X007330Y022423D03*
X006523Y023210D03*
X002172Y017580D03*
X002999Y004037D03*
X003609Y002777D03*
M02*
