%
M48
M72
T01C0.0118
T02C0.0256
T03C0.0315
T04C0.0320
T05C0.0354
T06C0.0394
T07C0.0472
T08C0.0787
%
T01
X2999Y4037
X3609Y2777
X6818Y8131
X7290Y8761
X8058Y9411
X8314Y10612
X8314Y11124
X7527Y12561
X7034Y13053
X6227Y12009
X5971Y11084
X6149Y10533
X7349Y10533
X8097Y12698
X8373Y13565
X8747Y13978
X8885Y13427
X9397Y13525
X9771Y13899
X9279Y14234
X9849Y14529
X10361Y14057
X10066Y12679
X10401Y11734
X9790Y11360
X9082Y12659
X8097Y14805
X8255Y15533
X8235Y16124
X7743Y16360
X7704Y15848
X7586Y14805
X6916Y16025
X6464Y16537
X6601Y17088
X6129Y17344
X5794Y17994
X6601Y18702
X6916Y17915
X7192Y17029
X8294Y18427
X8688Y17088
X9515Y17226
X10184Y18604
X9869Y19194
X9318Y19372
X9338Y20277
X9968Y21458
X10086Y22383
X10263Y23112
X11483Y21183
X11168Y20277
X8590Y20769
X8078Y20100
X8196Y22147
X7330Y22423
X6523Y23210
X2172Y17580
X3924Y14313
X4259Y13722
X4436Y14313
X5263Y14608
X5637Y15061
X6227Y14372
X4534Y12679
X3294Y11222
X8353Y7088
X10164Y9372
X10617Y7738
X11090Y6911
X10676Y6498
X11818Y7856
X12487Y6380
X11109Y3348
X11306Y11360
X11542Y12541
X11031Y12541
X11680Y13978
T02
X3275Y13734
X3275Y14234
X3275Y14734
X3275Y15234
X3275Y15734
X3275Y16234
X3275Y16734
X3275Y13234
T03
X2094Y19490
X2881Y19883
X2881Y21458
X2881Y22246
X2094Y21852
X11149Y2364
X12133Y1380
X10164Y1380
X15873Y23427
T04
X11149Y18078
X11149Y16178
T05
X3275Y3427
X3275Y1694
T06
X4456Y7876
X4456Y7876
X4456Y11006
T07
X1897Y18309
X3668Y18506
X1897Y23427
T08
X6031Y22246
X13511Y22246
M30
